# xmcd
#
# Track frame offsets: 
#        150
#        13018
#        22416
#        34630
#        45544
#        58502
#        70645
#        83274
#        95788
#        107554
#        118019
#        128637
#        141842
#        153160
#        165936
#        183338
#
# Disc length: 2646 seconds
#
# Revision: 3
# Processed by: cddbd v1.5.2PL0 Copyright (c) Steve Scherf et al.
# Submitted via: ExactAudioCopyFreeDBPlugin 1.0
#
DISCID=c30a5410
DTITLE=Various Artist - Country Heat Classics Disc Two
DYEAR=2001
DGENRE=Country
TTITLE0=Johnny Cash - Folsom Prison Blues
TTITLE1=Elvis Presley - Don't Be Cruel
TTITLE2=Tammy Wynette - Stand By Your Man
TTITLE3=Porter Wagoner and Dolly Parton - Just Someone I Used To Know
TTITLE4=Jim Reeves - Four Walls
TTITLE5=Charlie Rich - There Won't be Anymore
TTITLE6=Zella Lehr - Two Doors Down
TTITLE7=Dave and Sugar - The Doors Is Always Open
TTITLE8=Hank Locklin - Send Me The Pillow You Dream On
TTITLE9=Don Gibson - Sea Of Heartbreak
TTITLE10=Jim Ed Brown and The Browns - Pop A Top
TTITLE11=Pee Wee King and His Golden West Cowboys - Slow Poke
TTITLE12=Floyd Cramer - Lost Date
TTITLE13=Gary Stewart - She's Actin' Single (I'm Drinkin Doubles)
TTITLE14=Ronnie Milsap - It Was Almost Like A Song
TTITLE15=Alabama - Love In The First Degree
EXTD=YEAR: 2001
EXTT0=
EXTT1=
EXTT2=
EXTT3=
EXTT4=
EXTT5=
EXTT6=
EXTT7=
EXTT8=
EXTT9=
EXTT10=
EXTT11=
EXTT12=
EXTT13=
EXTT14=
EXTT15=
PLAYORDER=
